<svg width="3303" height="1872" fill="none" xmlns="http://www.w3.org/2000/svg"><path d="M1752.5 1c-115.3 5.1-232.7 31.5-354 79.7-149.9 59.5-298.7 149.9-438.899 266.7C893.101 402.8 846.2 448.2 760.1 541c-20.7 22.2-47.2 50.8-59 63.4-17 18.3-32.8 37.3-76.9 92.5-58.6 73.4-70.1 88.4-106.3 139.1-145.2 202.9-263 407.8-392.7 683-85.7 181.8-130 296.8-123.6 320.7.6 2.2.7 2.2 3.7.6 1.7-.8 6.5-5 10.7-9.3 27.7-28 74.5-105 146.8-241.5 55.1-104.2 83.6-153.5 88.8-153.5 3.6 0 5.1 16 3.5 35.5-2 22.3-4.5 40-15.1 104.5-17 103.6-19.5 123.8-19.5 159 0 34.7 1 37.9 15.7 51.1 5.1 4.6 13 12.2 17.5 17 10.1 10.6 15.1 13.1 26.3 13.3l7.5.1 2.2-4.5c1.2-2.5 7-15.1 12.9-28 67.6-148.3 106-218.5 137.4-251.3 8.5-9 17.4-15.7 20.8-15.7 4.8 0-3.2 31.9-32.5 129.5-20.1 67.1-34.4 125.8-36.1 148.2-1.9 25.9 3.8 37.3 26 51.8 4 2.7 11.2 7.9 16 11.7 10.2 8.1 17.3 11.6 25.4 12.4l6 .6 2.2-7.8c3.5-13.2 5.9-26.7 11.7-66.7 13.1-89.9 22.7-138.1 39.5-198.1 17.7-63.6 37.7-119.1 65.3-181 9.2-20.5 7.2-32.7-9.5-57.3-8.9-13.3-24.8-29.5-33.1-33.8l-5.7-3-6.4 3.3c-19.8 10.2-70.9 60.7-106.3 105-11.2 14-76.8 116.1-86.1 134.1-8.2 15.7-12.9 20.5-23.1 23.6l-2.3.7.7-9.3c.3-5.2 2.6-33.5 5.1-62.9 5.9-72 7.3-94.1 8.1-123 .9-36.6-.3-41.5-14.4-56.1l-8.4-8.7 2.1-5.3c9.2-23.6 71.7-128.7 119.8-201.4 59.4-90 130.6-186.7 179.3-243.5 6.9-8 16.5-19.5 21.4-25.6 12.6-15.5 33-38.8 46-52.4 6.1-6.3 17.3-18.7 25-27.5 18.2-20.9 22.4-25.1 106-106.2 76.2-73.8 75.801-73.4 124.001-113.4 46.5-38.6 72.5-58.8 120.999-94 103.9-75.6 192.7-129.7 287.5-175.4 173.1-83.4 312.5-126.1 442-135.5 19.6-1.4 68.1-1.5 86.5-.1 90.2 6.9 167.4 33.1 236.5 80.2 63.5 43.3 109.3 103.7 131.8 173.9 10.6 32.9 15 60.3 15.9 98.5 1 44.2-3.5 81.2-15.8 128.5-10.4 40.1-25.3 78-52.5 133.9-14.9 30.5-23.8 47-39.7 73.6-14.3 23.8-52.8 82.4-58 88.2-3.8 4.1-9.4 15-8.3 16 1.9 2 63.5-10.6 124.1-25.2 82.9-20 128.1-28.1 223.5-39.9 239.1-29.7 409.1-13.8 534.9 49.9 95.3 48.2 156.5 117.8 190.1 216 32.9 96.3 28.3 195.6-13.1 280-37.6 76.8-101.8 151.3-194.9 226-53.4 42.9-91.8 68.3-105.8 70.2l-4.2.6.6-3.4c1.3-7.1 5.7-18.5 16.3-42.8 23.4-53.1 32.4-80.4 36.2-109.5 1.7-13.4.7-39.1-2-49.1-6-22.3-18.4-38-37.6-47.5-11.2-5.6-21.6-8.1-36.2-8.7-69.7-3.1-149 51.5-199.2 137.1-13.6 23.1-29.1 57.5-37.6 83.1-10.1 30.7-14 53.8-13.2 78.5 1.1 30.4 9.1 50.5 27.1 68.6 10.4 10.4 18.5 15 32.5 18.5 7.2 1.8 10.5 2 24 1.7 26.7-.8 45.5-6.2 108.6-31.3 46.2-18.4 68.6-28.2 103.5-45.6 204.4-101.4 365.1-252.8 421.8-397.1 14.7-37.5 23.1-71.1 27.9-111.6 2.1-18.4 2.4-71.4.5-90.2-10.8-104.7-37.3-166.9-99.3-233-43.3-46.2-85.9-77.7-142.4-105.5-67.1-32.9-140.6-50.9-230.5-56.5-21.3-1.3-76.7-1.3-99.6 0-66.9 3.8-132.1 12.7-210.1 28.5-44.9 9-72.6 15.4-148.3 34.1-91.3 22.5-118.5 28.2-144.1 30-5.3.4-12.1.4-15.2 0-5.6-.7-5.7-.8-5.7-4 0-1.8.9-5.9 2-9.2 4-11.6 12.6-23.6 34.9-48.8 21.4-24.3 32.6-38.9 48.6-63.1 42.4-64.4 69.8-130.6 82.6-199.5 8-43.2 9.1-96.1 2.9-138.6-16.9-115.4-79.7-215.3-181.2-288.1-90.1-64.7-217.1-106.1-353.3-115.2-22.1-1.5-68.3-2.1-90-1.1Zm1048.2 1549.2c-1.4 25.7-11 55.5-29.8 93-19.5 39-44 74.3-68.8 98.8-13.6 13.4-21.1 18.7-32 22-7.1 2.2-21 3.6-26.3 2.6-3.1-.6-3.8-1.3-6.1-6.4-12.4-28.2-.6-71.5 33.8-123.7 21.2-32.2 47.2-59.8 72.1-76.6 17.4-11.7 38.3-19.6 52.8-19.8l4.9-.1-.6 10.2Z" fill="#FF1218"/><path d="M829.7 1456.1c-8.1 1.2-12.7 5.7-21.2 20.9-6.4 11.4-9.3 15-11.9 15-3.3-.1-9.5-3.2-19.8-10.3-13.7-9.3-19.7-10.3-34.8-5.5-16.1 5.1-41.9 20.9-75.4 46.1-69.9 52.7-113.8 120.6-124.1 191.8-2.2 15.4-2 40.8.4 55.1 8 46.1 34.4 75.2 68.1 75.1 19.6 0 34.7-6.9 62-28.2 10.8-8.4 19.8-13.7 21.2-12.3.4.4 2.4 7 4.4 14.7 3.8 14.4 5.9 19.7 10 25.2 5.3 7 18.1 13.3 32.4 15.9 13 2.3 35.1 1.3 37.1-1.7 3.3-5.1 6.4-22.2 8.4-46.7 5.5-66.5 10.5-95.6 24.9-143.8 11.2-37.5 35-96 51-125.4 18.2-33.3 20.7-42.9 14.7-55.2-4.2-8.8-18.9-22.6-29.9-28.2-4.6-2.3-11.7-3.3-17.5-2.5Zm-61.1 106.6c-2.8 15.5-31.8 88.1-48.1 120.3-23.8 46.9-48.6 72.3-74.1 75.9-9.6 1.4-12 .7-15-4.5-12.1-20.6-10.4-46.8 5.1-78.9 24.2-50.3 83.1-105.1 123.5-115 9-2.2 9.3-2.1 8.6 2.2ZM1387 1467c-30.3 6.5-63.3 26.6-95.9 58.5-48.2 47.1-83.9 108.4-96.5 165.5-11.6 52.8-.8 98.7 30.2 128.2 12.1 11.6 28.8 20.1 44.8 22.9 4.2.7 12.4 1 21.8.6 12.5-.4 17.1-1 26.7-3.5 14.6-3.9 29-9.6 44.6-17.7 17.2-9 22.6-12.7 32.4-22.5 10-10 15.9-20.5 18.5-33 2.7-12.6.6-27-4.6-32.2-6.2-6.2-14.2-3.4-40.3 14-23.6 15.7-39.6 21.5-59.3 21.6-10.4.1-11.4-.1-16.9-2.9-7.1-3.6-12.4-10.1-15.2-18.4-2.8-8.6-2.5-32 .5-46.6 14.6-68.9 71.5-157.2 103.3-160.3 6-.6 9 1.2 12.1 7.1 1.9 3.6 2.3 6.4 2.9 21.2.6 16.4 1.2 19.7 4.9 27.7 1.1 2.3 2.1 2.8 6.5 3.3 5.9.8 16.5-.6 24.6-3.2 7.7-2.5 19.5-10.8 25.2-17.8 16.6-20.5 20.8-52.1 10.2-76-13-29.5-45.2-44.1-80.5-36.5Zm768.5 2.1c-7.2 4.5-18.5 15.9-26.9 26.9-10.8 14.1-19.9 27.7-45.1 67-34.7 54.2-49.3 74.5-52.3 72.6-5.2-3.2-4.2-27.8 2.9-71.6 3.9-24.2 4.7-39.1 2.5-48.5-4.2-17.7-15.9-32.6-31.6-40.4-9.1-4.4-19.3-7.1-27.6-7.1h-5.1l-9.8 15.7c-5.4 8.7-16.6 27-24.8 40.8-39.8 66.3-57.6 92-102.9 148.8-17.1 21.4-37.4 47.2-45.1 57.5-34.7 46.2-52.8 79.4-50.3 92.3 1.4 7.8 14.7 23.2 26.5 30.8 5.4 3.4 7.2 4.1 11.5 4.1 13.8 0 30.1-13.8 53.5-45.3 14.9-20.1 95.5-142.4 102.8-156.1 3.6-6.7 7-12.7 7.6-13.4 1.1-1.4 6.9-4.6 11.4-6.3l2.6-1-.7 9.8c-1.7 24.5-5.3 49.4-13.2 92.8-7.2 39-8.4 47.7-8.4 61 0 21.2 5 31 19.8 38.4 21 10.6 36.6 3.6 55.7-24.9 6.3-9.5 14.7-24.3 39-69 20.6-38 36.5-63.7 59.1-95.6 8.7-12.3 9.7-13.4 15.8-16.5 3.6-1.8 6.8-3.1 7.1-2.7.9.9-1.4 12.8-9.5 49.3-17.2 77.6-21.3 103.3-21.4 135.1-.1 17.5.1 19.4 1.8 21.3 3 3.3 22.8 12.6 36.1 17 11.8 4 26.6 7.1 33.1 7.1 3 0 3.4-.3 3.9-3.3.3-1.7 9.6-74.3 20.7-161.2 17.6-138.1 20.1-159.8 20.2-172.7.1-16.9.2-16.7-10.1-25.3-19.5-16.3-29.4-23.8-35.9-26.9-4-2-7.4-3.6-7.6-3.6-.2 0-2.6 1.4-5.3 3.1Zm295.8-.7c-21.7 4.2-45.6 16.2-70.5 35.6-12.3 9.6-40.9 38.6-53.2 54-11.2 14-27.9 38.6-35.8 52.5-29.5 52.1-44 103-40.7 143.4 4 50.5 31.4 80.2 81.7 88.6 14.2 2.4 43.3 1.6 57.7-1.5 20.9-4.5 41.1-12.8 56.2-23.2 9.1-6.3 21.7-19.4 26.6-27.8 6.2-10.7 8.2-18.6 8.2-32.5 0-6.6-.4-13.3-.8-14.8-1-3.8-.2-4-33.2 9.2-42.5 17.1-58.8 21.9-78.1 22.8-10.5.5-13 .3-19-1.5-21.7-6.6-27.6-29.1-17.8-67.1 2.6-9.9 7.7-20.7 10.6-22.5 2.2-1.3 5.6 1.2 20.9 15.2 14.8 13.5 20.7 16.4 34 17 12.1.5 21-1.7 36.4-9.2 20.7-10.2 41.4-25.5 62.1-46.1 25.2-25 39.5-48.1 46.9-75.7 16.1-60.1-19.1-114.7-75.5-117.3-5.8-.3-12.3.1-16.7.9Zm13.9 68.2c2.6 1.8 5.3 5 7.1 8.4 2.6 5 2.9 6.2 2.5 13.6-.4 6.7-1 9.4-4 15.7-5.2 10.9-11 18.9-21 29.3-22.6 23.4-54.6 38.4-81.9 38.4-6.3 0-6.7-1-4-9.9 3-9.7 6.9-18.2 14.1-30.2 18.9-31.4 44.9-58.2 64.5-66.4 8.4-3.6 16.7-3.1 22.7 1.1ZM1176 1471.4c-6.2 4.6-10.4 9.3-26.5 30.1-18.5 24-26.8 33.6-42.1 48.6-20.6 20-42 36.1-66.6 49.7-26.3 14.5-32.1 11.4-22.4-11.8 2.4-5.8 8.3-18.7 13-28.7 11.8-25 15.8-37.1 16.4-49.4.4-8.2.1-10.1-1.7-13.6-2.9-5.8-10.1-11.6-20.6-16.8-10.5-5.2-18.6-7.5-26.699-7.5h-5.8l-3.4 5.2c-7.7 12.1-29.7 58.3-51.8 108.8-41.8 95.4-77.6 188.8-83.3 216.9-2.1 10.1-2.4 9.5 12 22.2 13.2 11.7 25.1 20.3 33.3 24.1l6.2 3 3.5-2.6c3.7-2.9 10.5-11.9 15.3-20.6 5.9-10.4 12.4-27.5 26.2-68.6 7.6-22.6 15.4-44.9 17.3-49.5 1.9-4.6 5.1-13.6 7.2-19.9 4.2-12.9 6.7-18.4 9.9-21.8 2.7-3.1 7.6-5.6 8.6-4.5 1.2 1.3 4.5 16.8 8.499 39.8 10.5 60.7 11.5 65.5 18.4 86.3 8.7 25.8 18.2 43.5 32.8 60.7l6 7 6.9-.3c3.8-.1 12.5-1.2 19.4-2.3 12.1-2 38.7-8.3 39.8-9.3 1.1-1.1-2.3-9.6-12-30.6-29.2-62.8-42-104.2-44.6-145.3l-.7-11.8 4.5-2.8c2.5-1.6 12.4-7.3 22-12.6s21.1-12.1 25.5-15c23.8-15.9 58.8-48.1 75-69 13.3-17.2 18.1-28.4 17.2-40-1.1-14.5-8.2-30.4-18.6-41.7-4.3-4.7-11.4-9.9-13.3-9.8-.2 0-2.3 1.5-4.8 3.4Zm425.5-.5c-19.4 8.9-62.5 91.1-109.5 208.6-19.7 49.3-23 61.2-23 82.5 0 19.5 4.4 34.3 15.1 51.5 16 25.7 34.2 34.6 58.5 28.5 5.5-1.4 15.7-5.9 33.9-14.9 24.5-12.3 33.8-16.1 39.2-16.1 1.9 0 2.5 1 4.2 6.7 1.1 3.8 2.5 9.3 3.1 12.3 2 10.5 6.3 14.8 21.1 21.2 13 5.5 24.5 8.1 34.1 7.6 4.2-.3 8.4-1 9.2-1.7 2.1-1.7 4.1-12 7.1-35.6 4.9-39.1 10.6-68.9 18.6-98 14.8-54.1 39.9-112.1 70.6-162.9 10.8-17.8 12.6-21.5 15.3-30.5 3.1-10.2 2.5-20.5-1.5-28-6.2-11.4-23.8-23.1-34.6-23.1-15.4.1-26.9 13-46.4 52-25.5 51-49 106.1-64.1 150.3-15.9 46.7-21.7 57.8-36.2 69.3-8.1 6.4-31.6 17.9-40.9 20-7.1 1.6-16.2 1.5-20.6-.1-4.5-1.8-5.5-26.5-1.8-44.3 8.3-39.7 26.7-80.9 76.7-171.4 16.1-29 25.8-47.8 28-54l1.3-3.7-6.2-6.1c-7.9-7.8-20.4-16.2-29.1-19.5-8.1-3-16.3-3.3-22.1-.6Z" fill="#FF1218"/></svg>