<svg width="30" height="30" fill="none" xmlns="http://www.w3.org/2000/svg"><path d="M.996.27C.141.762-.199 1.746.176 2.672c.129.293 2.039 2.285 6.129 6.375L12.246 15l-5.941 5.941c-4.09 4.102-6 6.094-6.13 6.387-.245.61-.222 1.125.095 1.676.492.855 1.476 1.195 2.402.82.293-.129 2.285-2.039 6.387-6.129L15 17.754l5.953 5.941c4.09 4.09 6.082 6 6.375 6.13.926.374 1.91.034 2.403-.821.316-.55.34-1.067.093-1.676-.129-.293-2.039-2.285-6.129-6.387L17.754 15l5.941-5.953c4.09-4.09 6-6.082 6.13-6.375.374-.926.035-1.91-.821-2.402-.55-.317-1.066-.34-1.676-.094-.293.129-2.285 2.039-6.375 6.129L15 12.246 9.047 6.305c-4.09-4.09-6.082-6-6.375-6.13C2.062-.07 1.547-.046.996.27Z" fill="#1972DA"/></svg>