<svg width="135" height="139" fill="none" xmlns="http://www.w3.org/2000/svg"><g clip-path="url(#a)"><path d="M59.897 138.673a27.743 27.743 0 0 1-27.733-27.744v-3.137a1.703 1.703 0 0 1 1.705-1.705h5.115a1.704 1.704 0 0 1 1.704 1.705v3.137c0 10.593 8.616 19.22 19.209 19.22s19.22-8.627 19.22-19.22V47.178c0-12.036 9.797-21.834 21.833-21.834 12.037 0 21.845 9.798 21.845 21.834v8.15a1.703 1.703 0 0 1-1.705 1.704h-5.114a1.707 1.707 0 0 1-1.705-1.705v-8.149c0-7.342-5.978-13.31-13.321-13.31a13.32 13.32 0 0 0-13.31 13.31v63.751a27.744 27.744 0 0 1-27.743 27.744Zm-24.323-29.176v1.432a24.337 24.337 0 0 0 24.328 24.86 24.334 24.334 0 0 0 24.329-24.86V47.178c0-9.218 7.502-16.72 16.719-16.72 9.218 0 16.731 7.502 16.731 16.72v6.445h1.705v-6.445c0-10.161-8.275-18.424-18.436-18.424-10.16 0-18.424 8.263-18.424 18.424v63.751c0 12.48-10.15 22.63-22.63 22.63-12.479 0-22.617-10.15-22.617-22.63v-1.432h-1.705Z" fill="#C7DDF2"/><path d="M9.057 52.974H3.943a1.705 1.705 0 0 1-1.705-1.704V18.456a12.252 12.252 0 0 1 12.24-12.23 1.705 1.705 0 0 1 1.706 1.705v5.115a1.705 1.705 0 0 1-1.705 1.705 3.717 3.717 0 0 0-3.717 3.705V51.27a1.705 1.705 0 0 1-1.705 1.705Zm-3.41-3.41h1.705V18.457a7.15 7.15 0 0 1 5.422-6.91v-1.74a8.842 8.842 0 0 0-7.126 8.65v31.109Zm63.252 3.41h-5.115a1.705 1.705 0 0 1-1.705-1.704V18.456a3.705 3.705 0 0 0-3.705-3.705 1.705 1.705 0 0 1-1.705-1.705V7.931a1.705 1.705 0 0 1 1.705-1.704 12.241 12.241 0 0 1 12.23 12.23V51.27a1.705 1.705 0 0 1-1.705 1.704Zm-3.41-3.41h1.705V18.457a8.831 8.831 0 0 0-7.115-8.65v1.74a7.137 7.137 0 0 1 5.41 6.91v31.109Z" fill="#fff"/><path d="M42.939 109.497H29.914a1.704 1.704 0 0 1-1.705-1.705v-8.525A36.348 36.348 0 0 1 .1 63.863V51.269a1.705 1.705 0 0 1 1.705-1.704h9.093a1.716 1.716 0 0 1 1.705 1.704v12.594a23.823 23.823 0 0 0 47.645 0V51.269a1.716 1.716 0 0 1 1.705-1.704h9.093a1.705 1.705 0 0 1 1.705 1.704v12.594a36.348 36.348 0 0 1-28.108 35.404v8.525a1.703 1.703 0 0 1-1.705 1.705Zm-11.32-3.41h9.615v-8.206a1.694 1.694 0 0 1 1.387-1.671 32.949 32.949 0 0 0 26.72-32.347V52.974H63.66v10.889a27.234 27.234 0 0 1-37.654 25.16 27.232 27.232 0 0 1-16.811-25.16V52.974H3.51v10.889A32.95 32.95 0 0 0 30.232 96.21a1.694 1.694 0 0 1 1.387 1.67v8.207Zm87.391-19.663c-9.069 0-16.457-7.388-16.457-16.469 0-9.081 7.388-16.47 16.457-16.47 9.07 0 16.47 7.389 16.47 16.47s-7.388 16.47-16.47 16.47Zm0-29.528c-7.194 0-13.048 5.864-13.048 13.059 0 7.195 5.854 13.06 13.048 13.06a13.06 13.06 0 1 0 0-26.12Z" fill="#fff"/><path d="M19.32 21.218a6.547 6.547 0 0 1-6.546-6.547V6.306a6.558 6.558 0 0 1 13.105 0v8.365a6.558 6.558 0 0 1-6.558 6.547Zm0-18.049a3.148 3.148 0 0 0-3.136 3.137v8.365a3.148 3.148 0 0 0 6.285 0V6.306a3.148 3.148 0 0 0-3.148-3.137Zm34.212 18.049a6.558 6.558 0 0 1-6.558-6.547V6.306a6.558 6.558 0 0 1 13.105 0v8.365a6.547 6.547 0 0 1-6.547 6.547Zm0-18.049a3.148 3.148 0 0 0-3.149 3.137v8.365a3.148 3.148 0 0 0 6.286 0V6.306a3.148 3.148 0 0 0-3.137-3.137Z" fill="#C7DDF2"/></g><defs><clipPath id="a"><path fill="#fff" d="M0 0h135v139H0z"/></clipPath></defs></svg>