<svg width="29" height="29" viewBox="0 0 29 29" fill="none" xmlns="http://www.w3.org/2000/svg">
<path d="M27.1875 12.6875H1.8125C0.81149 12.6875 0 13.499 0 14.5C0 15.501 0.81149 16.3125 1.8125 16.3125H27.1875C28.1885 16.3125 29 15.501 29 14.5C29 13.499 28.1885 12.6875 27.1875 12.6875Z" fill="white"/>
<path d="M1.8125 7.854H27.1875C28.1885 7.854 29 7.04251 29 6.0415C29 5.04049 28.1885 4.229 27.1875 4.229H1.8125C0.81149 4.229 0 5.04049 0 6.0415C0 7.04251 0.81149 7.854 1.8125 7.854Z" fill="white"/>
<path d="M27.1875 21.1455H1.8125C0.81149 21.1455 0 21.957 0 22.958C0 23.959 0.81149 24.7705 1.8125 24.7705H27.1875C28.1885 24.7705 29 23.959 29 22.958C29 21.957 28.1885 21.1455 27.1875 21.1455Z" fill="white"/>
</svg>
