<svg width="30" height="30" viewBox="0 0 30 30" fill="none" xmlns="http://www.w3.org/2000/svg">
<path d="M0.996189 0.26955C0.14072 0.761738 -0.199124 1.74611 0.175876 2.67189C0.304782 2.96486 2.21494 4.95705 6.30478 9.04689L12.2462 15L6.30478 20.9414C2.21494 25.043 0.304782 27.0352 0.175876 27.3281C-0.0702176 27.9375 -0.0467801 28.4531 0.269626 29.0039C0.761814 29.8594 1.74619 30.1992 2.67197 29.8242C2.96494 29.6953 4.95713 27.7852 9.05869 23.6953L15.0001 17.7539L20.9532 23.6953C25.0431 27.7852 27.0353 29.6953 27.3282 29.8242C28.254 30.1992 29.2384 29.8594 29.7306 29.0039C30.047 28.4531 30.0704 27.9375 29.8243 27.3281C29.6954 27.0352 27.7853 25.043 23.6954 20.9414L17.754 15L23.6954 9.04689C27.7853 4.95705 29.6954 2.96486 29.8243 2.67189C30.1993 1.74611 29.8595 0.761738 29.004 0.26955C28.4532 -0.0468559 27.9376 -0.0702934 27.3282 0.1758C27.0353 0.304707 25.0431 2.21486 20.9532 6.3047L15.0001 12.2461L9.04697 6.3047C4.95713 2.21486 2.96494 0.304707 2.67197 0.1758C2.0626 -0.0702934 1.54697 -0.0468559 0.996189 0.26955Z" fill="#1972DA"/>
</svg>
