<svg width="3303" height="1872" viewBox="0 0 3303 1872" fill="none" xmlns="http://www.w3.org/2000/svg">
<path d="M1752.5 0.999923C1637.2 6.09992 1519.8 32.4999 1398.5 80.6999C1248.6 140.2 1099.8 230.6 959.601 347.4C893.101 402.8 846.2 448.2 760.1 541C739.4 563.2 712.9 591.8 701.1 604.4C684.1 622.7 668.3 641.7 624.2 696.9C565.6 770.3 554.1 785.3 517.9 836C372.7 1038.9 254.9 1243.8 125.2 1519C39.5005 1700.8 -4.79954 1815.8 1.60046 1839.7C2.20046 1841.9 2.30046 1841.9 5.30046 1840.3C7.00046 1839.5 11.8005 1835.3 16.0005 1831C43.7005 1803 90.5005 1726 162.8 1589.5C217.9 1485.3 246.4 1436 251.6 1436C255.2 1436 256.7 1452 255.1 1471.5C253.1 1493.8 250.6 1511.5 240 1576C223 1679.6 220.5 1699.8 220.5 1735C220.5 1769.7 221.5 1772.9 236.2 1786.1C241.3 1790.7 249.2 1798.3 253.7 1803.1C263.8 1813.7 268.8 1816.2 280 1816.4L287.5 1816.5L289.7 1812C290.9 1809.5 296.7 1796.9 302.6 1784C370.2 1635.7 408.6 1565.5 440 1532.7C448.5 1523.7 457.4 1517 460.8 1517C465.6 1517 457.6 1548.9 428.3 1646.5C408.2 1713.6 393.9 1772.3 392.2 1794.7C390.3 1820.6 396 1832 418.2 1846.5C422.2 1849.2 429.4 1854.4 434.2 1858.2C444.4 1866.3 451.5 1869.8 459.6 1870.6L465.6 1871.2L467.8 1863.4C471.3 1850.2 473.7 1836.7 479.5 1796.7C492.6 1706.8 502.2 1658.6 519 1598.6C536.7 1535 556.7 1479.5 584.3 1417.6C593.5 1397.1 591.5 1384.9 574.8 1360.3C565.9 1347 550 1330.8 541.7 1326.5L536 1323.5L529.6 1326.8C509.8 1337 458.7 1387.5 423.3 1431.8C412.1 1445.8 346.5 1547.9 337.2 1565.9C329 1581.6 324.3 1586.4 314.1 1589.5L311.8 1590.2L312.5 1580.9C312.8 1575.7 315.1 1547.4 317.6 1518C323.5 1446 324.9 1423.9 325.7 1395C326.6 1358.4 325.4 1353.5 311.3 1338.9L302.9 1330.2L305 1324.9C314.2 1301.3 376.7 1196.2 424.8 1123.5C484.2 1033.5 555.4 936.8 604.1 880C611 872 620.6 860.5 625.5 854.4C638.1 838.9 658.5 815.6 671.5 802C677.6 795.7 688.8 783.3 696.5 774.5C714.7 753.6 718.9 749.4 802.5 668.3C878.7 594.5 878.301 594.9 926.501 554.9C973.001 516.3 999.001 496.1 1047.5 460.9C1151.4 385.3 1240.2 331.2 1335 285.5C1508.1 202.1 1647.5 159.4 1777 150C1796.6 148.6 1845.1 148.5 1863.5 149.9C1953.7 156.8 2030.9 183 2100 230.1C2163.5 273.4 2209.3 333.8 2231.8 404C2242.4 436.9 2246.8 464.3 2247.7 502.5C2248.7 546.7 2244.2 583.7 2231.9 631C2221.5 671.1 2206.6 709 2179.4 764.9C2164.5 795.4 2155.6 811.9 2139.7 838.5C2125.4 862.3 2086.9 920.9 2081.7 926.7C2077.9 930.8 2072.3 941.7 2073.4 942.7C2075.3 944.7 2136.9 932.1 2197.5 917.5C2280.4 897.5 2325.6 889.4 2421 877.6C2660.1 847.9 2830.1 863.8 2955.9 927.5C3051.2 975.7 3112.4 1045.3 3146 1143.5C3178.9 1239.8 3174.3 1339.1 3132.9 1423.5C3095.3 1500.3 3031.1 1574.8 2938 1649.5C2884.6 1692.4 2846.2 1717.8 2832.2 1719.7L2828 1720.3L2828.6 1716.9C2829.9 1709.8 2834.3 1698.4 2844.9 1674.1C2868.3 1621 2877.3 1593.7 2881.1 1564.6C2882.8 1551.2 2881.8 1525.5 2879.1 1515.5C2873.1 1493.2 2860.7 1477.5 2841.5 1468C2830.3 1462.4 2819.9 1459.9 2805.3 1459.3C2735.6 1456.2 2656.3 1510.8 2606.1 1596.4C2592.5 1619.5 2577 1653.9 2568.5 1679.5C2558.4 1710.2 2554.5 1733.3 2555.3 1758C2556.4 1788.4 2564.4 1808.5 2582.4 1826.6C2592.8 1837 2600.9 1841.6 2614.9 1845.1C2622.1 1846.9 2625.4 1847.1 2638.9 1846.8C2665.6 1846 2684.4 1840.6 2747.5 1815.5C2793.7 1797.1 2816.1 1787.3 2851 1769.9C3055.4 1668.5 3216.1 1517.1 3272.8 1372.8C3287.5 1335.3 3295.9 1301.7 3300.7 1261.2C3302.8 1242.8 3303.1 1189.8 3301.2 1171C3290.4 1066.3 3263.9 1004.1 3201.9 938C3158.6 891.8 3116 860.3 3059.5 832.5C2992.4 799.6 2918.9 781.6 2829 776C2807.7 774.7 2752.3 774.7 2729.4 776C2662.5 779.8 2597.3 788.7 2519.3 804.5C2474.4 813.5 2446.7 819.9 2371 838.6C2279.7 861.1 2252.5 866.8 2226.9 868.6C2221.6 869 2214.8 869 2211.7 868.6C2206.1 867.9 2206 867.8 2206 864.6C2206 862.8 2206.9 858.7 2208 855.4C2212 843.8 2220.6 831.8 2242.9 806.6C2264.3 782.3 2275.5 767.7 2291.5 743.5C2333.9 679.1 2361.3 612.9 2374.1 544C2382.1 500.8 2383.2 447.9 2377 405.4C2360.1 290 2297.3 190.1 2195.8 117.3C2105.7 52.5999 1978.7 11.1999 1842.5 2.09992C1820.4 0.599923 1774.2 -7.67112e-05 1752.5 0.999923ZM2800.7 1550.2C2799.3 1575.9 2789.7 1605.7 2770.9 1643.2C2751.4 1682.2 2726.9 1717.5 2702.1 1742C2688.5 1755.4 2681 1760.7 2670.1 1764C2663 1766.2 2649.1 1767.6 2643.8 1766.6C2640.7 1766 2640 1765.3 2637.7 1760.2C2625.3 1732 2637.1 1688.7 2671.5 1636.5C2692.7 1604.3 2718.7 1576.7 2743.6 1559.9C2761 1548.2 2781.9 1540.3 2796.4 1540.1L2801.3 1540L2800.7 1550.2Z" fill="#FF1218"/>
<path d="M829.7 1456.1C821.6 1457.3 817 1461.8 808.5 1477C802.1 1488.4 799.2 1492 796.6 1492C793.3 1491.9 787.1 1488.8 776.8 1481.7C763.1 1472.4 757.1 1471.4 742 1476.2C725.9 1481.3 700.1 1497.1 666.6 1522.3C596.7 1575 552.8 1642.9 542.5 1714.1C540.3 1729.5 540.5 1754.9 542.9 1769.2C550.9 1815.3 577.3 1844.4 611 1844.3C630.6 1844.3 645.7 1837.4 673 1816.1C683.8 1807.7 692.8 1802.4 694.2 1803.8C694.6 1804.2 696.6 1810.8 698.6 1818.5C702.4 1832.9 704.5 1838.2 708.6 1843.7C713.9 1850.7 726.7 1857 741 1859.6C754 1861.9 776.1 1860.9 778.1 1857.9C781.4 1852.8 784.5 1835.7 786.5 1811.2C792 1744.7 797 1715.6 811.4 1667.4C822.6 1629.9 846.4 1571.4 862.4 1542C880.6 1508.7 883.1 1499.1 877.1 1486.8C872.9 1478 858.2 1464.2 847.2 1458.6C842.6 1456.3 835.5 1455.3 829.7 1456.1ZM768.6 1562.7C765.8 1578.2 736.8 1650.8 720.5 1683C696.7 1729.9 671.9 1755.3 646.4 1758.9C636.8 1760.3 634.4 1759.6 631.4 1754.4C619.3 1733.8 621 1707.6 636.5 1675.5C660.7 1625.2 719.6 1570.4 760 1560.5C769 1558.3 769.3 1558.4 768.6 1562.7Z" fill="#FF1218"/>
<path d="M1387 1467C1356.7 1473.5 1323.7 1493.6 1291.1 1525.5C1242.9 1572.6 1207.2 1633.9 1194.6 1691C1183 1743.8 1193.8 1789.7 1224.8 1819.2C1236.9 1830.8 1253.6 1839.3 1269.6 1842.1C1273.8 1842.8 1282 1843.1 1291.4 1842.7C1303.9 1842.3 1308.5 1841.7 1318.1 1839.2C1332.7 1835.3 1347.1 1829.6 1362.7 1821.5C1379.9 1812.5 1385.3 1808.8 1395.1 1799C1405.1 1789 1411 1778.5 1413.6 1766C1416.3 1753.4 1414.2 1739 1409 1733.8C1402.8 1727.6 1394.8 1730.4 1368.7 1747.8C1345.1 1763.5 1329.1 1769.3 1309.4 1769.4C1299 1769.5 1298 1769.3 1292.5 1766.5C1285.4 1762.9 1280.1 1756.4 1277.3 1748.1C1274.5 1739.5 1274.8 1716.1 1277.8 1701.5C1292.4 1632.6 1349.3 1544.3 1381.1 1541.2C1387.1 1540.6 1390.1 1542.4 1393.2 1548.3C1395.1 1551.9 1395.5 1554.7 1396.1 1569.5C1396.7 1585.9 1397.3 1589.2 1401 1597.2C1402.1 1599.5 1403.1 1600 1407.5 1600.5C1413.4 1601.3 1424 1599.9 1432.1 1597.3C1439.8 1594.8 1451.6 1586.5 1457.3 1579.5C1473.9 1559 1478.1 1527.4 1467.5 1503.5C1454.5 1474 1422.3 1459.4 1387 1467Z" fill="#FF1218"/>
<path d="M2155.5 1469.1C2148.3 1473.6 2137 1485 2128.6 1496C2117.8 1510.1 2108.7 1523.7 2083.5 1563C2048.8 1617.2 2034.2 1637.5 2031.2 1635.6C2026 1632.4 2027 1607.8 2034.1 1564C2038 1539.8 2038.8 1524.9 2036.6 1515.5C2032.4 1497.8 2020.7 1482.9 2005 1475.1C1995.9 1470.7 1985.7 1468 1977.4 1468H1972.3L1962.5 1483.7C1957.1 1492.4 1945.9 1510.7 1937.7 1524.5C1897.9 1590.8 1880.1 1616.5 1834.8 1673.3C1817.7 1694.7 1797.4 1720.5 1789.7 1730.8C1755 1777 1736.9 1810.2 1739.4 1823.1C1740.8 1830.9 1754.1 1846.3 1765.9 1853.9C1771.3 1857.3 1773.1 1858 1777.4 1858C1791.2 1858 1807.5 1844.2 1830.9 1812.7C1845.8 1792.6 1926.4 1670.3 1933.7 1656.6C1937.3 1649.9 1940.7 1643.9 1941.3 1643.2C1942.4 1641.8 1948.2 1638.6 1952.7 1636.9L1955.3 1635.9L1954.6 1645.7C1952.9 1670.2 1949.3 1695.1 1941.4 1738.5C1934.2 1777.5 1933 1786.2 1933 1799.5C1933 1820.7 1938 1830.5 1952.8 1837.9C1973.8 1848.5 1989.4 1841.5 2008.5 1813C2014.8 1803.5 2023.2 1788.7 2047.5 1744C2068.1 1706 2084 1680.3 2106.6 1648.4C2115.3 1636.1 2116.3 1635 2122.4 1631.9C2126 1630.1 2129.2 1628.8 2129.5 1629.2C2130.4 1630.1 2128.1 1642 2120 1678.5C2102.8 1756.1 2098.7 1781.8 2098.6 1813.6C2098.5 1831.1 2098.7 1833 2100.4 1834.9C2103.4 1838.2 2123.2 1847.5 2136.5 1851.9C2148.3 1855.9 2163.1 1859 2169.6 1859C2172.6 1859 2173 1858.7 2173.5 1855.7C2173.8 1854 2183.1 1781.4 2194.2 1694.5C2211.8 1556.4 2214.3 1534.7 2214.4 1521.8C2214.5 1504.9 2214.6 1505.1 2204.3 1496.5C2184.8 1480.2 2174.9 1472.7 2168.4 1469.6C2164.4 1467.6 2161 1466 2160.8 1466C2160.6 1466 2158.2 1467.4 2155.5 1469.1Z" fill="#FF1218"/>
<path d="M2451.3 1468.4C2429.6 1472.6 2405.7 1484.6 2380.8 1504C2368.5 1513.6 2339.9 1542.6 2327.6 1558C2316.4 1572 2299.7 1596.6 2291.8 1610.5C2262.3 1662.6 2247.8 1713.5 2251.1 1753.9C2255.1 1804.4 2282.5 1834.1 2332.8 1842.5C2347 1844.9 2376.1 1844.1 2390.5 1841C2411.4 1836.5 2431.6 1828.2 2446.7 1817.8C2455.8 1811.5 2468.4 1798.4 2473.3 1790C2479.5 1779.3 2481.5 1771.4 2481.5 1757.5C2481.5 1750.9 2481.1 1744.2 2480.7 1742.7C2479.7 1738.9 2480.5 1738.7 2447.5 1751.9C2405 1769 2388.7 1773.8 2369.4 1774.7C2358.9 1775.2 2356.4 1775 2350.4 1773.2C2328.7 1766.6 2322.8 1744.1 2332.6 1706.1C2335.2 1696.2 2340.3 1685.4 2343.2 1683.6C2345.4 1682.3 2348.8 1684.8 2364.1 1698.8C2378.9 1712.3 2384.8 1715.2 2398.1 1715.8C2410.2 1716.3 2419.1 1714.1 2434.5 1706.6C2455.2 1696.4 2475.9 1681.1 2496.6 1660.5C2521.8 1635.5 2536.1 1612.4 2543.5 1584.8C2559.6 1524.7 2524.4 1470.1 2468 1467.5C2462.2 1467.2 2455.7 1467.6 2451.3 1468.4ZM2465.2 1536.6C2467.8 1538.4 2470.5 1541.6 2472.3 1545C2474.9 1550 2475.2 1551.2 2474.8 1558.6C2474.4 1565.3 2473.8 1568 2470.8 1574.3C2465.6 1585.2 2459.8 1593.2 2449.8 1603.6C2427.2 1627 2395.2 1642 2367.9 1642C2361.6 1642 2361.2 1641 2363.9 1632.1C2366.9 1622.4 2370.8 1613.9 2378 1601.9C2396.9 1570.5 2422.9 1543.7 2442.5 1535.5C2450.9 1531.9 2459.2 1532.4 2465.2 1536.6Z" fill="#FF1218"/>
<path d="M1176 1471.4C1169.8 1476 1165.6 1480.7 1149.5 1501.5C1131 1525.5 1122.7 1535.1 1107.4 1550.1C1086.8 1570.1 1065.4 1586.2 1040.8 1599.8C1014.5 1614.3 1008.7 1611.2 1018.4 1588C1020.8 1582.2 1026.7 1569.3 1031.4 1559.3C1043.2 1534.3 1047.2 1522.2 1047.8 1509.9C1048.2 1501.7 1047.9 1499.8 1046.1 1496.3C1043.2 1490.5 1036 1484.7 1025.5 1479.5C1015 1474.3 1006.9 1472 998.801 1472H993.001L989.601 1477.2C981.901 1489.3 959.901 1535.5 937.801 1586C896.001 1681.4 860.201 1774.8 854.501 1802.9C852.401 1813 852.101 1812.4 866.501 1825.1C879.701 1836.8 891.601 1845.4 899.801 1849.2L906.001 1852.2L909.501 1849.6C913.201 1846.7 920.001 1837.7 924.801 1829C930.701 1818.6 937.201 1801.5 951.001 1760.4C958.601 1737.8 966.401 1715.5 968.301 1710.9C970.201 1706.3 973.401 1697.3 975.501 1691C979.701 1678.1 982.201 1672.6 985.401 1669.2C988.101 1666.1 993.001 1663.6 994.001 1664.7C995.201 1666 998.501 1681.5 1002.5 1704.5C1013 1765.2 1014 1770 1020.9 1790.8C1029.6 1816.6 1039.1 1834.3 1053.7 1851.5L1059.7 1858.5L1066.6 1858.2C1070.4 1858.1 1079.1 1857 1086 1855.9C1098.1 1853.9 1124.7 1847.6 1125.8 1846.6C1126.9 1845.5 1123.5 1837 1113.8 1816C1084.6 1753.2 1071.8 1711.8 1069.2 1670.7L1068.5 1658.9L1073 1656.1C1075.5 1654.5 1085.4 1648.8 1095 1643.5C1104.6 1638.2 1116.1 1631.4 1120.5 1628.5C1144.3 1612.6 1179.3 1580.4 1195.5 1559.5C1208.8 1542.3 1213.6 1531.1 1212.7 1519.5C1211.6 1505 1204.5 1489.1 1194.1 1477.8C1189.8 1473.1 1182.7 1467.9 1180.8 1468C1180.6 1468 1178.5 1469.5 1176 1471.4Z" fill="#FF1218"/>
<path d="M1601.5 1470.9C1582.1 1479.8 1539 1562 1492 1679.5C1472.3 1728.8 1469 1740.7 1469 1762C1469 1781.5 1473.4 1796.3 1484.1 1813.5C1500.1 1839.2 1518.3 1848.1 1542.6 1842C1548.1 1840.6 1558.3 1836.1 1576.5 1827.1C1601 1814.8 1610.3 1811 1615.7 1811C1617.6 1811 1618.2 1812 1619.9 1817.7C1621 1821.5 1622.4 1827 1623 1830C1625 1840.5 1629.3 1844.8 1644.1 1851.2C1657.1 1856.7 1668.6 1859.3 1678.2 1858.8C1682.4 1858.5 1686.6 1857.8 1687.4 1857.1C1689.5 1855.4 1691.5 1845.1 1694.5 1821.5C1699.4 1782.4 1705.1 1752.6 1713.1 1723.5C1727.9 1669.4 1753 1611.4 1783.7 1560.6C1794.5 1542.8 1796.3 1539.1 1799 1530.1C1802.1 1519.9 1801.5 1509.6 1797.5 1502.1C1791.3 1490.7 1773.7 1479 1762.9 1479C1747.5 1479.1 1736 1492 1716.5 1531C1691 1582 1667.5 1637.1 1652.4 1681.3C1636.5 1728 1630.7 1739.1 1616.2 1750.6C1608.1 1757 1584.6 1768.5 1575.3 1770.6C1568.2 1772.2 1559.1 1772.1 1554.7 1770.5C1550.2 1768.7 1549.2 1744 1552.9 1726.2C1561.2 1686.5 1579.6 1645.3 1629.6 1554.8C1645.7 1525.8 1655.4 1507 1657.6 1500.8L1658.9 1497.1L1652.7 1491C1644.8 1483.2 1632.3 1474.8 1623.6 1471.5C1615.5 1468.5 1607.3 1468.2 1601.5 1470.9Z" fill="#FF1218"/>
</svg>
