<svg width="135" height="139" viewBox="0 0 135 139" fill="none" xmlns="http://www.w3.org/2000/svg">
<g clip-path="url(#clip0_0_236)">
<path d="M59.8967 138.673C52.5405 138.67 45.4867 135.746 40.2861 130.543C35.0855 125.34 32.1641 118.285 32.1641 110.929V107.792C32.1641 107.34 32.3437 106.906 32.6634 106.587C32.9831 106.267 33.4168 106.087 33.8689 106.087H38.9836C39.4357 106.087 39.8694 106.267 40.1891 106.587C40.5088 106.906 40.6885 107.34 40.6885 107.792V110.929C40.6885 121.522 49.3038 130.149 59.8967 130.149C70.4897 130.149 79.1164 121.522 79.1164 110.929V47.178C79.1164 35.1416 88.9138 25.3442 100.95 25.3442C112.987 25.3442 122.795 35.1416 122.795 47.178V55.3274C122.795 55.7795 122.616 56.2132 122.296 56.5329C121.976 56.8526 121.543 57.0322 121.09 57.0322H115.976C115.524 57.0322 115.09 56.8526 114.77 56.5329C114.451 56.2132 114.271 55.7795 114.271 55.3274V47.178C114.271 39.8357 108.293 33.8686 100.95 33.8686C97.4212 33.8716 94.0377 35.2748 91.5424 37.7702C89.047 40.2655 87.6438 43.6491 87.6408 47.178V110.929C87.6408 118.287 84.7178 125.344 79.5147 130.547C74.3117 135.75 67.2549 138.673 59.8967 138.673ZM35.5738 109.497V110.929C35.5038 114.168 36.0813 117.389 37.2725 120.402C38.4637 123.415 40.2445 126.159 42.5106 128.475C44.7766 130.791 47.4822 132.63 50.4688 133.886C53.4553 135.142 56.6625 135.789 59.9024 135.789C63.1423 135.789 66.3496 135.142 69.3361 133.886C72.3226 132.63 75.0282 130.791 77.2943 128.475C79.5604 126.159 81.3412 123.415 82.5324 120.402C83.7235 117.389 84.301 114.168 84.231 110.929V47.178C84.231 37.9603 91.7325 30.4589 100.95 30.4589C110.168 30.4589 117.681 37.9603 117.681 47.178V53.6225H119.386V47.178C119.386 37.017 111.111 28.754 100.95 28.754C90.7891 28.754 82.5262 37.017 82.5262 47.178V110.929C82.5262 123.409 72.3765 133.559 59.8967 133.559C47.417 133.559 37.2787 123.409 37.2787 110.929V109.497H35.5738Z" fill="#C7DDF2"/>
<path d="M9.0573 52.9743H3.94267C3.49051 52.9743 3.05686 52.7947 2.73714 52.475C2.41741 52.1553 2.23779 51.7216 2.23779 51.2695V18.4562C2.24381 15.2126 3.53578 12.1037 5.83044 9.81118C8.1251 7.51865 11.2352 6.22957 14.4788 6.22656C14.931 6.22656 15.3646 6.40618 15.6843 6.72591C16.0041 7.04564 16.1837 7.47928 16.1837 7.93144V13.0461C16.1837 13.4982 16.0041 13.9319 15.6843 14.2516C15.3646 14.5713 14.931 14.751 14.4788 14.751C13.4951 14.751 12.5514 15.141 11.8548 15.8355C11.1581 16.5301 10.7652 17.4725 10.7622 18.4562V51.2695C10.7622 51.7216 10.5826 52.1553 10.2628 52.475C9.94311 52.7947 9.50947 52.9743 9.0573 52.9743ZM5.64755 49.5646H7.35243V18.4562C7.35839 16.8653 7.89482 15.3219 8.8768 14.0702C9.85878 12.8186 11.2302 11.9302 12.7739 11.5458V9.80681C10.7697 10.2033 8.96468 11.2816 7.66554 12.8584C6.3664 14.4352 5.65334 16.4132 5.64755 18.4562V49.5646Z" fill="white"/>
<path d="M68.8986 52.9743H63.784C63.3318 52.9743 62.8982 52.7947 62.5784 52.475C62.2587 52.1553 62.0791 51.7216 62.0791 51.2695V18.4562C62.0791 17.4735 61.6887 16.5311 60.9938 15.8362C60.299 15.1413 59.3565 14.751 58.3738 14.751C57.9217 14.751 57.488 14.5713 57.1683 14.2516C56.8486 13.9319 56.6689 13.4982 56.6689 13.0461V7.93144C56.6689 7.47928 56.8486 7.04564 57.1683 6.72591C57.488 6.40618 57.9217 6.22656 58.3738 6.22656C61.6164 6.22957 64.7253 7.51902 67.0182 9.81187C69.311 12.1047 70.6005 15.2136 70.6035 18.4562V51.2695C70.6035 51.7216 70.4239 52.1553 70.1041 52.475C69.7844 52.7947 69.3508 52.9743 68.8986 52.9743ZM65.4888 49.5646H67.1937V18.4562C67.1906 16.4142 66.4799 14.4364 65.1827 12.8594C63.8854 11.2824 62.0818 10.2036 60.0787 9.80681V11.5458C61.6213 11.9306 62.9913 12.8194 63.9713 14.0713C64.9514 15.3231 65.4855 16.8664 65.4888 18.4562V49.5646Z" fill="white"/>
<path d="M42.939 109.497H29.9137C29.4615 109.497 29.0279 109.317 28.7082 108.997C28.3884 108.678 28.2088 108.244 28.2088 107.792V99.2673C20.2144 97.4065 13.0852 92.8946 7.98155 86.4661C2.87792 80.0375 0.100396 72.0708 0.101074 63.8627V51.2693C0.101074 50.8172 0.280695 50.3835 0.600422 50.0638C0.920149 49.7441 1.35379 49.5645 1.80595 49.5645H10.8986C11.3499 49.5674 11.7818 49.748 12.1009 50.0671C12.42 50.3862 12.6005 50.8181 12.6035 51.2693V63.8627C12.6035 70.1809 15.1134 76.2403 19.5811 80.708C24.0487 85.1756 30.1081 87.6855 36.4263 87.6855C42.7445 87.6855 48.804 85.1756 53.2716 80.708C57.7393 76.2403 60.2492 70.1809 60.2492 63.8627V51.2693C60.2522 50.8181 60.4327 50.3862 60.7518 50.0671C61.0709 49.748 61.5028 49.5674 61.954 49.5645H71.0467C71.4989 49.5645 71.9325 49.7441 72.2523 50.0638C72.572 50.3835 72.7516 50.8172 72.7516 51.2693V63.8627C72.7523 72.0708 69.9748 80.0375 64.8711 86.4661C59.7675 92.8946 52.6383 97.4065 44.6439 99.2673V107.792C44.6439 108.244 44.4642 108.678 44.1445 108.997C43.8248 109.317 43.3911 109.497 42.939 109.497ZM31.6186 106.087H41.2341V97.8807C41.2329 97.4839 41.371 97.0992 41.6244 96.7939C41.8779 96.4885 42.2305 96.2818 42.6207 96.2099C50.1393 94.7626 56.9191 90.7421 61.7953 84.8391C66.6716 78.9361 69.3399 71.5193 69.3419 63.8627V52.9742H63.6589V63.8627C63.6589 67.4389 62.9545 70.9801 61.586 74.2842C60.2174 77.5882 58.2115 80.5903 55.6827 83.119C53.1539 85.6478 50.1518 87.6538 46.8478 89.0223C43.5438 90.3909 40.0026 91.0953 36.4263 91.0953C32.8501 91.0953 29.3089 90.3909 26.0049 89.0223C22.7009 87.6538 19.6988 85.6478 17.17 83.119C14.6412 80.5903 12.6353 77.5882 11.2667 74.2842C9.89815 70.9801 9.19376 67.4389 9.19376 63.8627V52.9742H3.51083V63.8627C3.51277 71.5193 6.18109 78.9361 11.0574 84.8391C15.9336 90.7421 22.7134 94.7626 30.232 96.2099C30.6222 96.2818 30.9748 96.4885 31.2283 96.7939C31.4817 97.0992 31.6198 97.4839 31.6186 97.8807V106.087Z" fill="white"/>
<path d="M119.01 86.4241C109.941 86.4241 102.553 79.0363 102.553 69.955C102.553 60.8736 109.941 53.4858 119.01 53.4858C128.08 53.4858 135.48 60.8736 135.48 69.955C135.48 79.0363 128.092 86.4241 119.01 86.4241ZM119.01 56.8956C111.816 56.8956 105.962 62.7604 105.962 69.955C105.962 77.1495 111.816 83.0143 119.01 83.0143C122.474 83.0143 125.796 81.6384 128.245 79.1893C130.694 76.7402 132.07 73.4185 132.07 69.955C132.07 66.4914 130.694 63.1697 128.245 60.7206C125.796 58.2715 122.474 56.8956 119.01 56.8956Z" fill="white"/>
<path d="M19.3207 21.2181C18.4609 21.2181 17.6096 21.0488 16.8153 20.7198C16.021 20.3908 15.2993 19.9086 14.6914 19.3006C14.0835 18.6927 13.6013 17.971 13.2723 17.1767C12.9433 16.3824 12.7739 15.5311 12.7739 14.6714V6.30614C12.8444 4.61554 13.5655 3.0176 14.7866 1.8463C16.0077 0.674995 17.6343 0.0209961 19.3263 0.0209961C21.0184 0.0209961 22.645 0.674995 23.8661 1.8463C25.0872 3.0176 25.8083 4.61554 25.8788 6.30614V14.6714C25.8757 16.4088 25.1835 18.0739 23.9539 19.3013C22.7244 20.5288 21.058 21.2181 19.3207 21.2181ZM19.3207 3.16916C18.4896 3.17215 17.6934 3.50362 17.1058 4.09127C16.5181 4.67892 16.1867 5.47508 16.1837 6.30614V14.6714C16.2319 15.4722 16.5839 16.2244 17.168 16.7744C17.7521 17.3244 18.5241 17.6307 19.3263 17.6307C20.1286 17.6307 20.9006 17.3244 21.4847 16.7744C22.0687 16.2244 22.4208 15.4722 22.469 14.6714V6.30614C22.466 5.47311 22.133 4.67524 21.5429 4.08727C20.9528 3.49929 20.1537 3.16915 19.3207 3.16916Z" fill="#C7DDF2"/>
<path d="M53.5317 21.2181C51.7944 21.2181 50.128 20.5288 48.8985 19.3013C47.6689 18.0739 46.9766 16.4088 46.9736 14.6714V6.30614C47.0441 4.61554 47.7652 3.0176 48.9863 1.8463C50.2074 0.674995 51.834 0.0209961 53.5261 0.0209961C55.2181 0.0209961 56.8447 0.674995 58.0658 1.8463C59.2869 3.0176 60.008 4.61554 60.0785 6.30614V14.6714C60.0785 16.4077 59.3887 18.0729 58.161 19.3006C56.9332 20.5284 55.268 21.2181 53.5317 21.2181ZM53.5317 3.16916C52.6987 3.16915 51.8996 3.49929 51.3095 4.08727C50.7194 4.67524 50.3864 5.47311 50.3834 6.30614V14.6714C50.4316 15.4722 50.7836 16.2244 51.3677 16.7744C51.9518 17.3244 52.7238 17.6307 53.5261 17.6307C54.3283 17.6307 55.1003 17.3244 55.6844 16.7744C56.2684 16.2244 56.6205 15.4722 56.6687 14.6714V6.30614C56.6657 5.47508 56.3343 4.67892 55.7466 4.09127C55.159 3.50362 54.3628 3.17215 53.5317 3.16916Z" fill="#C7DDF2"/>
</g>
<defs>
<clipPath id="clip0_0_236">
<rect width="135" height="139" fill="white"/>
</clipPath>
</defs>
</svg>
